<svg width="226" height="187" viewBox="0 0 226 187" fill="none" xmlns="http://www.w3.org/2000/svg">
<path d="M83.027 87.2942C70.154 84.9368 66.7367 68.5015 65.9404 65.1321C65.1441 61.7628 65.6197 55.4911 64.3479 55.6579C63.065 55.8136 61.4725 62.2409 61.4725 62.2409C61.4725 62.2409 43.1031 42.1694 37.0315 20.4854C36.3901 17.4386 36.556 0.247078 33.3598 0.725236C30.1637 1.2034 22.6545 9.39881 32.5636 29.7928C32.5636 29.7928 21.5375 9.7213 17.2244 1.84836C12.9113 -6.02458 9.07373 12.7682 22.3338 29.6372C22.1789 29.4815 6.68494 11.6451 5.08135 12.6125C3.48881 13.5799 8.59818 29.7929 14.1831 34.9414C14.1831 34.9414 4.43991 22.7317 2.04005 24.8222C-0.359807 26.9128 3.9533 35.742 3.9533 35.742C3.9533 35.742 0.602342 33.696 0.115735 37.4434C-0.370872 41.1908 2.67042 46.4951 2.67042 46.4951C2.67042 46.4951 -0.470409 43.9263 0.0604351 48.4188C0.591279 52.9113 3.78742 56.7699 3.78742 56.7699C3.78742 56.7699 -1.16714 59.0161 1.70827 63.3529C4.58368 67.6897 6.1762 68.1679 6.1762 68.1679C6.1762 68.1679 1.8631 67.8454 4.26295 72.8271C6.66281 77.8089 7.93463 78.4538 7.93463 78.4538C7.93463 78.4538 4.58368 78.6095 7.2932 84.7144C10.0138 90.8193 11.927 90.1743 11.927 90.1743C11.927 90.1743 11.4515 93.5437 14.8024 94.0329C14.4817 94.1886 12.4026 99.1704 15.278 100.616C18.1534 102.062 21.8251 100.616 21.8251 100.616C21.8251 100.616 17.8327 108 20.7081 109.29C23.5835 110.579 24.059 109.29 24.059 109.29C24.059 109.29 24.2138 113.949 26.1382 114.749C28.0514 115.55 29.1684 114.749 29.1684 114.749C29.1684 114.749 27.5759 118.764 30.1305 119.086C32.6852 119.409 34.5985 118.119 34.5985 118.119C34.5985 118.119 34.5985 123.746 36.8325 124.057C39.0664 124.379 40.67 121.811 40.67 121.811C40.67 121.811 40.5152 128.071 43.2247 128.56C45.9453 129.039 47.8585 127.437 47.8585 127.437C47.8585 127.437 48.0134 129.85 50.2584 129.684C52.4924 129.528 54.0959 127.915 54.0959 127.915C54.0959 127.915 54.2508 130.34 57.4469 129.695C60.643 129.05 69.7448 118.119 69.7448 118.119C69.7448 118.119 63.3525 131.774 60.4771 134.176C57.6017 136.589 35.3948 143.172 31.5683 144.128C27.7307 145.096 22.3006 146.541 24.5456 152.635C24.7005 152.479 18.64 156.494 21.5154 159.863C24.3908 163.233 28.3832 160.986 28.3832 160.986C28.3832 160.986 20.8739 164.2 24.5456 167.569C28.2173 170.939 30.772 168.859 30.772 168.859C30.772 168.859 25.9833 171.906 28.6928 173.674C31.4134 175.442 34.7644 174.475 34.7644 174.475C34.7644 174.475 28.6929 179.935 32.3645 182.181C36.0362 184.427 39.8737 182.181 39.8737 182.181C39.8737 182.181 37.684 185.228 41.4995 185.395C45.3039 185.55 47.7037 182.181 47.7037 182.181C47.7037 182.181 44.3527 187.163 49.1414 186.996C53.93 186.829 57.7676 182.982 57.7676 182.982C57.7676 182.982 59.2053 185.873 63.5184 184.583C67.8315 183.293 69.59 179.601 69.59 179.601C69.59 179.601 74.5445 183.46 77.5748 181.202C80.605 178.956 81.8879 176.866 81.8879 176.866L81.733 169.482L84.4536 175.42C84.4536 175.42 89.8837 176.065 91.9628 173.974C94.042 171.884 93.0798 168.192 93.0798 168.192L95.159 171.884C95.159 171.884 101.23 172.529 104.581 166.746C104.581 167.87 109.536 164.5 108.895 160.642C108.253 156.783 94.6834 151.812 96.1211 147.476C97.5588 143.139 100.279 139.28 100.279 139.28C100.279 139.28 100.6 144.584 102.193 144.418C103.785 144.262 106.03 141.371 106.03 141.371C106.03 141.371 106.462 143.939 107.921 143.294C109.381 142.649 111.936 139.28 111.936 139.28C111.936 139.28 111.936 141.693 114.811 140.881C117.687 140.081 118.97 137.512 118.97 137.512C118.97 137.512 120.252 139.603 122.962 137.835C125.682 136.066 126.954 133.976 126.954 133.976C126.954 133.976 128.547 136.867 131.267 135.421C133.988 133.976 135.581 130.607 135.581 130.607C135.581 130.607 137.339 132.53 140.214 129.483C143.09 126.437 145.169 122.255 145.169 122.255C145.169 122.255 152.357 121.933 153.474 119.687C154.591 117.44 153.474 114.872 153.474 114.872C153.474 114.872 161.625 116.796 162.576 114.549L163.538 112.303C163.538 112.303 170.406 112.626 172.319 110.857C174.233 109.089 172.319 107.644 172.319 107.644C172.319 107.644 177.429 108.444 180.78 102.662C180.304 103.14 203.296 104.975 213.205 96.913C223.103 88.851 227.262 81.1449 225.669 80.4999C224.077 79.855 218.481 84.5142 218.481 84.5142C218.481 84.5142 218.481 80.1774 208.096 90.9416C207.62 91.0972 210.009 86.7605 207.455 87.083C204.9 87.4054 199.47 92.5428 199.47 92.5428C199.47 92.5428 204.745 87.083 201.383 87.5611C198.032 88.0393 185.889 98.3252 175.991 100.093C168.968 100.738 167.044 100.571 167.044 100.571C167.044 100.571 173.757 96.079 172.474 94.1441C171.191 92.2204 163.207 98.1584 156.018 99.2815C148.83 100.405 122.309 105.542 121.358 105.22C120.396 104.897 122.321 101.361 122.475 97.836C122.475 98.1584 124.975 99.5818 125.03 102.173C125.351 102.818 127.109 101.85 127.43 97.9917C127.585 98.4698 128.868 97.0242 128.868 92.6874C129.022 92.3649 133.026 84.9813 127.109 80.322C121.203 75.6627 114.966 78.3982 110.653 83.0575C106.34 87.7168 86.5327 87.8725 83.0159 87.2386L83.027 87.2942Z" fill="black"/>
</svg>
