<svg width="363" height="131" viewBox="0 0 363 131" fill="none" xmlns="http://www.w3.org/2000/svg">
<path d="M362.031 78.1381C361.671 84.6581 357.011 90.1381 350.631 91.5581C345.341 92.7381 339.931 90.8681 336.481 86.8981C334.601 88.6781 332.231 89.9481 329.581 90.4681C325.411 91.2981 321.161 90.1881 317.961 87.5881C314.491 91.5981 309.631 94.2981 304.221 95.0581C297.711 95.9781 291.211 93.9781 286.381 89.7181C284.551 91.6581 282.191 93.0881 279.511 93.7881C275.041 94.9681 270.321 93.9281 266.781 91.0981C263.651 95.3781 258.871 98.3181 253.431 99.0581C249.201 99.6281 244.991 98.8181 241.371 96.8681C238.801 99.7281 235.381 101.798 231.501 102.688C226.451 103.858 221.211 102.908 216.941 100.188C213.651 106.228 208.611 111.238 202.361 114.478C193.971 118.828 184.221 119.568 175.341 116.608C170.941 123.378 163.911 128.208 155.731 129.748C146.221 131.538 136.551 128.618 129.651 122.128C120.371 129.418 108.281 132.458 96.4407 130.188C84.3607 127.868 74.0707 120.288 68.2207 109.718C62.2407 112.928 55.3607 114.348 48.4007 113.628C39.9808 112.758 32.3107 108.838 26.7007 102.778C24.0707 105.578 20.4507 107.348 16.5007 107.618C10.8107 108.018 5.36074 105.238 2.34074 100.408C0.000742912 96.6581 -0.589257 92.1581 0.590743 88.0181C2.35074 93.0781 6.77075 96.8281 12.1807 97.6681C17.5707 98.4981 22.9007 96.2481 26.1007 91.9881C28.4807 96.0081 32.7907 98.5881 37.5707 98.7281C42.0407 98.8481 46.2108 96.8081 48.8708 93.3781C51.5908 96.3181 55.7607 97.6581 59.8207 96.6481C63.1907 95.8081 65.8607 93.4981 67.2507 90.5281C75.1807 101.488 89.1507 106.708 102.581 103.238C114.181 100.238 123.001 91.3681 126.231 80.3481C129.221 87.5581 136.111 92.7581 144.341 93.2681C153.591 93.8381 161.891 88.3181 165.161 80.0581C168.071 89.7481 176.681 96.7381 186.911 97.4881C196.311 98.1681 205.121 93.4281 209.811 85.5381C213.111 90.5481 218.881 93.4881 224.991 93.0881C230.911 92.6881 236.101 89.2281 238.791 84.1181C242.281 87.3581 247.121 88.8281 251.901 87.9881C256.281 87.2181 260.061 84.6181 262.331 80.9381C265.511 84.1781 270.401 85.2881 274.761 83.5481C278.941 81.8881 281.671 77.9881 281.961 73.6681C291.911 81.6081 305.991 81.9081 316.261 74.4581C319.401 79.1581 324.761 81.9881 330.501 81.8781C335.341 81.7881 339.821 79.6181 342.881 76.0581C346.011 78.7581 350.411 79.6281 354.391 78.2081C357.421 77.1281 359.801 74.8781 361.071 72.0681C361.811 73.9581 362.151 76.0181 362.031 78.1381Z" fill="#E7E7E7"/>
<path d="M361.071 72.0681C359.801 74.8781 357.421 77.1281 354.391 78.2081C350.411 79.6281 346.011 78.7581 342.881 76.0581C339.821 79.6181 335.341 81.7881 330.501 81.8781C324.761 81.9881 319.401 79.1581 316.261 74.4581C305.991 81.9081 291.911 81.6081 281.961 73.6681C281.671 77.9881 278.941 81.8881 274.761 83.5481C270.401 85.2881 265.511 84.1781 262.331 80.9381C260.061 84.6181 256.281 87.2181 251.901 87.9881C247.121 88.8281 242.281 87.3581 238.791 84.1181C236.101 89.2281 230.911 92.6881 224.991 93.0881C218.881 93.4881 213.111 90.5481 209.811 85.5381C205.121 93.4281 196.311 98.1681 186.911 97.4881C176.681 96.7381 168.071 89.7481 165.161 80.0581C161.891 88.3181 153.591 93.8381 144.341 93.2681C136.111 92.7581 129.221 87.5581 126.231 80.3481C123.001 91.3681 114.181 100.238 102.581 103.238C89.1508 106.708 75.1808 101.488 67.2508 90.5281C65.8608 93.4981 63.1908 95.8081 59.8208 96.6481C55.7608 97.6581 51.5908 96.3181 48.8708 93.3781C46.2108 96.8081 42.0408 98.8481 37.5708 98.7281C32.7908 98.5881 28.4808 96.0081 26.1008 91.9881C22.9008 96.2481 17.5708 98.4981 12.1808 97.6681C6.77082 96.8281 2.35082 93.0781 0.59082 88.0181C0.92082 86.8081 1.41082 85.6381 2.06082 84.5181C4.76082 79.8481 9.68082 76.9281 15.0408 76.8081C15.0608 73.4881 16.5408 70.2481 19.2908 68.0581C22.7708 65.2881 27.4508 64.8781 31.2708 66.7681C32.5408 64.7481 34.5508 63.3081 36.8808 62.7681C37.4008 62.6481 37.9308 62.5681 38.4608 62.5381C38.3408 61.5881 38.3108 60.6281 38.3708 59.6581C38.6308 55.4781 40.6008 51.5881 43.8108 48.9081C46.8708 46.3581 50.8108 45.1081 54.7708 45.4281C54.3908 40.9081 55.9808 36.3281 59.3208 32.9881C61.7908 30.5081 64.9408 28.9881 68.2508 28.5081C72.7708 12.6681 86.8808 1.0581 103.771 0.0681035C119.641 -0.861897 134.171 7.80811 141.141 21.4681C145.041 19.0781 149.891 18.4281 154.431 19.9181C160.251 21.8181 164.401 26.8481 165.271 32.7881C173.071 29.3481 181.981 29.0281 190.091 32.0381C197.331 34.7281 203.311 39.8281 207.121 46.3581C212.471 41.9681 219.691 40.1881 226.691 41.8581C233.171 43.4181 238.471 47.6981 241.431 53.3681C245.271 48.9481 250.831 46.2381 256.861 46.0581C262.251 45.8981 267.391 47.7881 271.331 51.1881C274.591 38.9681 285.891 30.2881 298.901 30.6781C311.421 31.0581 321.851 39.7181 324.871 51.4081C329.341 51.1181 333.841 52.2281 337.731 54.6581C341.001 56.6981 343.611 59.5581 345.371 62.8781C347.621 62.5481 349.961 62.7481 352.221 63.5181C356.391 64.9581 359.561 68.1481 361.071 72.0681Z" fill="#F9FBFC"/>
<path d="M155.671 74.1182C157.101 76.1182 158.711 77.5582 160.481 78.5082C162.251 79.4582 164.141 79.9082 166.021 79.8882C167.911 79.8582 169.791 79.3682 171.531 78.3782C173.281 77.3882 174.851 75.9182 176.241 73.8882C176.481 76.3582 175.381 78.9882 173.471 80.8582C171.561 82.7482 168.821 83.8782 166.061 83.8882C163.301 83.9282 160.541 82.8582 158.591 81.0182C156.641 79.1882 155.481 76.5882 155.661 74.1182H155.671Z" fill="#E7E7E7"/>
<path d="M117.151 76.1681C118.421 77.5781 119.661 78.4881 120.941 79.0681C122.221 79.6481 123.491 79.8981 124.771 79.8881C126.051 79.8681 127.311 79.5881 128.581 78.9781C129.851 78.3681 131.071 77.438 132.311 75.998C132.701 77.878 131.961 79.9581 130.521 81.4581C129.091 82.9681 126.961 83.8781 124.821 83.8881C122.671 83.9181 120.531 83.0481 119.071 81.5781C117.611 80.1181 116.811 78.0481 117.161 76.1681H117.151Z" fill="#E7E7E7"/>
<path d="M54.1211 80.5681C56.6611 83.6981 59.3911 86.0781 62.4111 87.7281C65.4011 89.4081 68.6311 90.3081 71.8911 90.5381C75.1511 90.7281 78.4711 90.2481 81.6611 88.9981C84.8611 87.7481 87.8911 85.7581 90.8211 82.9981C90.0911 86.9981 87.4811 90.6781 83.9411 93.1281C80.4011 95.5981 75.9011 96.8181 71.5011 96.5181C67.1011 96.2181 62.8011 94.4381 59.6211 91.4981C56.4311 88.6081 54.3311 84.6081 54.1211 80.5581V80.5681Z" fill="#E7E7E7"/>
<path d="M221.23 75.908C224.22 78.608 227.27 80.548 230.51 81.718C233.72 82.918 237.05 83.318 240.31 83.058C243.56 82.748 246.77 81.768 249.73 80.048C252.7 78.328 255.39 75.898 257.87 72.718C257.76 76.778 255.73 80.818 252.61 83.778C249.48 86.758 245.23 88.648 240.83 89.028C236.43 89.398 231.91 88.288 228.33 85.878C224.74 83.508 222.05 79.878 221.23 75.898V75.908Z" fill="#E7E7E7"/>
<path d="M302.971 68.028C305.061 69.998 307.241 71.4381 309.571 72.3081C311.881 73.1981 314.301 73.5081 316.671 73.3181C319.031 73.0981 321.361 72.3681 323.491 71.0981C325.631 69.8281 327.541 68.048 329.261 65.748C329.121 68.638 327.651 71.4981 325.411 73.5881C323.171 75.6981 320.141 77.0281 317.021 77.2981C313.901 77.5581 310.681 76.7881 308.121 75.0881C305.551 73.4181 303.621 70.8581 302.971 68.0381V68.028Z" fill="#E7E7E7"/>
</svg>
