<?xml version="1.0" encoding="UTF-8"?>
<svg id="Layer_1" data-name="Layer 1" xmlns="http://www.w3.org/2000/svg" viewBox="0 0 115.37 36.7">
  <defs>
    <style>
      .cls-1 {
        fill:rgb(246, 223, 255);
      }

      .cls-2 {
        fill: none;
        stroke: rgb(246, 223, 255);
        stroke-miterlimit: 10;
        stroke-width: 1.5px;
      }
    </style>
  </defs>
  <g>
    <path class="cls-1" d="M14.68,31.41h-1.48l6.87-20.48h4.11l-8.17,22.82h-4.32L3.52,10.92h4.23l6.93,20.48Z"/>
    <path class="cls-1" d="M28.38,7.9c-.73,0-1.33-.28-1.81-.83s-.71-1.27-.71-2.16.24-1.61.71-2.16c.47-.55,1.08-.83,1.81-.83s1.36.28,1.82.83c.46.55.69,1.27.69,2.16s-.23,1.61-.69,2.16c-.46.55-1.07.83-1.82.83ZM26.46,10.76l1.92.48,1.92-.48v22.98h-3.85V10.76Z"/>
    <path class="cls-1" d="M51.73,26.81c0,1.53-.32,2.86-.95,3.99-.63,1.13-1.59,1.99-2.87,2.6s-2.89.91-4.82.91-3.72-.34-5.18-1.03c-1.46-.68-2.59-1.65-3.39-2.9-.8-1.25-1.23-2.69-1.29-4.33h3.91c.12.86.44,1.62.96,2.28.52.66,1.21,1.16,2.07,1.51.86.35,1.84.52,2.95.52,1.6,0,2.8-.26,3.61-.79.81-.52,1.21-1.32,1.21-2.4,0-.73-.27-1.28-.81-1.65-.54-.38-1.56-.66-3.06-.85l-3.29-.4c-1.78-.21-3.18-.65-4.2-1.31-1.03-.66-1.76-1.47-2.19-2.42-.43-.95-.65-1.97-.65-3.04,0-1.56.36-2.86,1.07-3.91s1.7-1.85,2.96-2.4c1.26-.55,2.73-.83,4.41-.83s3.29.33,4.65.99c1.36.66,2.45,1.57,3.26,2.74s1.26,2.52,1.36,4.05h-3.91c-.08-.62-.31-1.22-.69-1.79-.39-.58-.97-1.06-1.75-1.45-.78-.39-1.82-.59-3.12-.59-1.38,0-2.46.24-3.24.73s-1.17,1.2-1.17,2.14c0,.59.24,1.1.71,1.51s1.35.71,2.63.87l4.23.52c1.7.21,3.02.63,3.98,1.23.96.61,1.63,1.38,2.03,2.32.39.94.59,2,.59,3.19Z"/>
    <path class="cls-1" d="M64.11,34.31c-2.03,0-3.81-.5-5.34-1.51-1.53-1.01-2.72-2.41-3.58-4.21-.86-1.8-1.29-3.88-1.29-6.25s.43-4.48,1.29-6.27c.86-1.79,2.05-3.18,3.58-4.19,1.53-1.01,3.31-1.51,5.34-1.51s3.81.5,5.34,1.51c1.53,1.01,2.72,2.41,3.58,4.19.86,1.79,1.29,3.88,1.29,6.27s-.43,4.45-1.29,6.25c-.86,1.8-2.05,3.21-3.58,4.21-1.53,1.01-3.31,1.51-5.34,1.51ZM64.11,30.2c1.3,0,2.42-.32,3.36-.97.94-.64,1.66-1.55,2.18-2.72.51-1.17.77-2.56.77-4.17s-.26-3-.77-4.17c-.51-1.17-1.24-2.08-2.18-2.72-.94-.64-2.06-.97-3.36-.97s-2.4.32-3.34.97c-.95.65-1.68,1.55-2.19,2.72-.51,1.17-.77,2.56-.77,4.17s.26,3,.77,4.17c.51,1.17,1.24,2.08,2.19,2.72.95.65,2.06.97,3.34.97Z"/>
    <path class="cls-1" d="M76.65,10.92h3.85l1.01,8.31v14.51h-3.85v-15.52l-1.01-7.3ZM90,10.76v4.6c-.43-.16-.91-.28-1.42-.36s-1-.12-1.45-.12c-1.09,0-2.05.32-2.9.97-.85.64-1.52,1.61-2,2.88-.48,1.28-.73,2.84-.73,4.7l-.89-1.49c.08-1.61.28-3.12.61-4.54.33-1.41.78-2.64,1.36-3.69.58-1.05,1.3-1.87,2.14-2.46.85-.59,1.84-.89,2.96-.89.4,0,.8.03,1.21.1.41.07.78.17,1.09.3Z"/>
    <path class="cls-1" d="M108.62,22.33c-.38,2.39-1,4.49-1.86,6.29-.87,1.8-1.94,3.2-3.21,4.19s-2.69,1.49-4.25,1.49c-1.64,0-3.09-.5-4.35-1.51-1.26-1.01-2.25-2.41-2.96-4.21-.71-1.8-1.07-3.88-1.07-6.25s.36-4.48,1.07-6.27c.71-1.79,1.7-3.18,2.96-4.19,1.26-1.01,2.71-1.51,4.35-1.51s2.97.5,4.25,1.49c1.27,1,2.35,2.39,3.23,4.17s1.49,3.89,1.85,6.31ZM94.83,22.33c0,1.53.23,2.88.7,4.05s1.1,2.08,1.91,2.74c.81.66,1.74.99,2.78.99s2.05-.33,2.96-.99c.91-.66,1.71-1.57,2.41-2.74.7-1.17,1.26-2.52,1.67-4.05-.41-1.53-.97-2.88-1.67-4.05-.7-1.17-1.51-2.08-2.41-2.74-.91-.66-1.89-.99-2.96-.99s-1.97.33-2.78.99c-.81.66-1.45,1.57-1.91,2.74s-.7,2.52-.7,4.05ZM107.44,33.74l-.65-8.47.77-2.94-.77-2.9.65-8.51h3.97l-.89,11.41.89,11.41h-3.97Z"/>
  </g>
  <circle class="cls-2" cx="64.11" cy="22.48" r="3.1"/>
  <circle class="cls-1" cx="66.5" cy="18.53" r="1.17"/>
</svg>