<?xml version="1.0" encoding="UTF-8"?>
<svg id="Layer_1" data-name="Layer 1" xmlns="http://www.w3.org/2000/svg" viewBox="0 0 113.39 113.39">
  <defs>
    <style>
      .cls-1, .cls-2 {
        fill: #231f20;
      }

      .cls-2 {
        stroke: #231f20;
        stroke-miterlimit: 10;
        stroke-width: .5px;
      }
    </style>
  </defs>
  <path class="cls-1" d="M20.67,55.58c0-14.81,3.08-25.7,9.25-32.66,6.16-6.97,14.94-10.45,26.34-10.45,12.19,0,21.18,3.57,26.94,10.7,5.77,7.13,8.65,17.94,8.65,32.42s-3.12,25.84-9.34,32.75c-6.23,6.91-14.98,10.37-26.25,10.37-12.2,0-21.18-3.56-26.94-10.7-5.77-7.13-8.65-17.94-8.65-32.42ZM35.58,55.58c0,4.83.36,9.22,1.09,13.17.73,3.95,1.92,7.35,3.58,10.2,1.66,2.85,3.81,5.07,6.46,6.67,2.65,1.59,5.83,2.39,9.54,2.39,6.89,0,12.06-2.55,15.51-7.65,3.44-5.1,5.17-13.36,5.17-24.77,0-4.72-.37-9.08-1.09-13.08-.73-4-1.92-7.43-3.58-10.29-1.66-2.85-3.81-5.07-6.46-6.67-2.65-1.59-5.83-2.39-9.54-2.39-6.76,0-11.9,2.58-15.41,7.74-3.51,5.16-5.27,13.38-5.27,24.68Z"/>
  <path class="cls-2" d="M55.8,69.51c-6.69,0-12.13-5.24-12.13-11.69s5.44-11.69,12.13-11.69,12.13,5.25,12.13,11.69-5.44,11.69-12.13,11.69ZM55.8,50.55c-3.73,0-6.77,3.26-6.77,7.26s3.04,7.26,6.77,7.26,6.77-3.26,6.77-7.26-3.04-7.26-6.77-7.26Z"/>
  <ellipse class="cls-1" cx="67.01" cy="42.13" rx="4.02" ry="3.32"/>
</svg>